<svg xmlns="http://www.w3.org/2000/svg" width="1462" height="1164" style="cursor: move;"><g transform="translate(243,-77) scale(1)"><rect class="rect" id="0_0" width="128" height="128" x="219" y="490" style="fill: rgb(204, 204, 204); stroke: black; stroke-width: 1; opacity: 0.8;"></rect><rect class="rect" id="0_1" width="128" height="128" x="227" y="498" style="fill: rgb(255, 255, 255); stroke: black; stroke-width: 1; opacity: 0.8;"></rect><rect class="rect" id="0_2" width="128" height="128" x="235" y="506" style="fill: rgb(204, 204, 204); stroke: black; stroke-width: 1; opacity: 0.8;"></rect><rect class="rect" id="0_3" width="128" height="128" x="243" y="514" style="fill: rgb(255, 255, 255); stroke: black; stroke-width: 1; opacity: 0.8;"></rect><rect class="rect" id="0_4" width="128" height="128" x="251" y="522" style="fill: rgb(204, 204, 204); stroke: black; stroke-width: 1; opacity: 0.8;"></rect><rect class="rect" id="0_5" width="128" height="128" x="259" y="530" style="fill: rgb(255, 255, 255); stroke: black; stroke-width: 1; opacity: 0.8;"></rect><rect class="rect" id="0_6" width="128" height="128" x="267" y="538" style="fill: rgb(204, 204, 204); stroke: black; stroke-width: 1; opacity: 0.8;"></rect><rect class="rect" id="0_7" width="128" height="128" x="275" y="546" style="fill: rgb(255, 255, 255); stroke: black; stroke-width: 1; opacity: 0.8;"></rect><rect class="rect" id="1_0" width="64" height="64" x="443" y="522" style="fill: rgb(204, 204, 204); stroke: black; stroke-width: 1; opacity: 0.8;"></rect><rect class="rect" id="1_1" width="64" height="64" x="451" y="530" style="fill: rgb(255, 255, 255); stroke: black; stroke-width: 1; opacity: 0.8;"></rect><rect class="rect" id="1_2" width="64" height="64" x="459" y="538" style="fill: rgb(204, 204, 204); stroke: black; stroke-width: 1; opacity: 0.8;"></rect><rect class="rect" id="1_3" width="64" height="64" x="467" y="546" style="fill: rgb(255, 255, 255); stroke: black; stroke-width: 1; opacity: 0.8;"></rect><rect class="rect" id="1_4" width="64" height="64" x="475" y="554" style="fill: rgb(204, 204, 204); stroke: black; stroke-width: 1; opacity: 0.8;"></rect><rect class="rect" id="1_5" width="64" height="64" x="483" y="562" style="fill: rgb(255, 255, 255); stroke: black; stroke-width: 1; opacity: 0.8;"></rect><rect class="rect" id="1_6" width="64" height="64" x="491" y="570" style="fill: rgb(204, 204, 204); stroke: black; stroke-width: 1; opacity: 0.8;"></rect><rect class="rect" id="1_7" width="64" height="64" x="499" y="578" style="fill: rgb(255, 255, 255); stroke: black; stroke-width: 1; opacity: 0.8;"></rect><rect class="rect" id="2_0" width="48" height="48" x="573" y="466" style="fill: rgb(204, 204, 204); stroke: black; stroke-width: 1; opacity: 0.8;"></rect><rect class="rect" id="2_1" width="48" height="48" x="581" y="474" style="fill: rgb(255, 255, 255); stroke: black; stroke-width: 1; opacity: 0.8;"></rect><rect class="rect" id="2_2" width="48" height="48" x="589" y="482" style="fill: rgb(204, 204, 204); stroke: black; stroke-width: 1; opacity: 0.8;"></rect><rect class="rect" id="2_3" width="48" height="48" x="597" y="490" style="fill: rgb(255, 255, 255); stroke: black; stroke-width: 1; opacity: 0.8;"></rect><rect class="rect" id="2_4" width="48" height="48" x="605" y="498" style="fill: rgb(204, 204, 204); stroke: black; stroke-width: 1; opacity: 0.8;"></rect><rect class="rect" id="2_5" width="48" height="48" x="613" y="506" style="fill: rgb(255, 255, 255); stroke: black; stroke-width: 1; opacity: 0.8;"></rect><rect class="rect" id="2_6" width="48" height="48" x="621" y="514" style="fill: rgb(204, 204, 204); stroke: black; stroke-width: 1; opacity: 0.8;"></rect><rect class="rect" id="2_7" width="48" height="48" x="629" y="522" style="fill: rgb(255, 255, 255); stroke: black; stroke-width: 1; opacity: 0.8;"></rect><rect class="rect" id="2_8" width="48" height="48" x="637" y="530" style="fill: rgb(204, 204, 204); stroke: black; stroke-width: 1; opacity: 0.8;"></rect><rect class="rect" id="2_9" width="48" height="48" x="645" y="538" style="fill: rgb(255, 255, 255); stroke: black; stroke-width: 1; opacity: 0.8;"></rect><rect class="rect" id="2_10" width="48" height="48" x="653" y="546" style="fill: rgb(204, 204, 204); stroke: black; stroke-width: 1; opacity: 0.8;"></rect><rect class="rect" id="2_11" width="48" height="48" x="661" y="554" style="fill: rgb(255, 255, 255); stroke: black; stroke-width: 1; opacity: 0.8;"></rect><rect class="rect" id="2_12" width="48" height="48" x="669" y="562" style="fill: rgb(204, 204, 204); stroke: black; stroke-width: 1; opacity: 0.8;"></rect><rect class="rect" id="2_13" width="48" height="48" x="677" y="570" style="fill: rgb(255, 255, 255); stroke: black; stroke-width: 1; opacity: 0.8;"></rect><rect class="rect" id="2_14" width="48" height="48" x="685" y="578" style="fill: rgb(204, 204, 204); stroke: black; stroke-width: 1; opacity: 0.8;"></rect><rect class="rect" id="2_15" width="48" height="48" x="693" y="586" style="fill: rgb(255, 255, 255); stroke: black; stroke-width: 1; opacity: 0.8;"></rect><rect class="rect" id="2_16" width="48" height="48" x="701" y="594" style="fill: rgb(204, 204, 204); stroke: black; stroke-width: 1; opacity: 0.8;"></rect><rect class="rect" id="2_17" width="48" height="48" x="709" y="602" style="fill: rgb(255, 255, 255); stroke: black; stroke-width: 1; opacity: 0.8;"></rect><rect class="rect" id="2_18" width="48" height="48" x="717" y="610" style="fill: rgb(204, 204, 204); stroke: black; stroke-width: 1; opacity: 0.8;"></rect><rect class="rect" id="2_19" width="48" height="48" x="725" y="618" style="fill: rgb(255, 255, 255); stroke: black; stroke-width: 1; opacity: 0.8;"></rect><rect class="rect" id="2_20" width="48" height="48" x="733" y="626" style="fill: rgb(204, 204, 204); stroke: black; stroke-width: 1; opacity: 0.8;"></rect><rect class="rect" id="2_21" width="48" height="48" x="741" y="634" style="fill: rgb(255, 255, 255); stroke: black; stroke-width: 1; opacity: 0.8;"></rect><rect class="rect" id="2_22" width="48" height="48" x="749" y="642" style="fill: rgb(204, 204, 204); stroke: black; stroke-width: 1; opacity: 0.8;"></rect><rect class="rect" id="2_23" width="48" height="48" x="757" y="650" style="fill: rgb(255, 255, 255); stroke: black; stroke-width: 1; opacity: 0.8;"></rect><rect class="rect" id="3_0" width="16" height="16" x="785" y="482" style="fill: rgb(204, 204, 204); stroke: black; stroke-width: 1; opacity: 0.8;"></rect><rect class="rect" id="3_1" width="16" height="16" x="793" y="490" style="fill: rgb(255, 255, 255); stroke: black; stroke-width: 1; opacity: 0.8;"></rect><rect class="rect" id="3_2" width="16" height="16" x="801" y="498" style="fill: rgb(204, 204, 204); stroke: black; stroke-width: 1; opacity: 0.8;"></rect><rect class="rect" id="3_3" width="16" height="16" x="809" y="506" style="fill: rgb(255, 255, 255); stroke: black; stroke-width: 1; opacity: 0.8;"></rect><rect class="rect" id="3_4" width="16" height="16" x="817" y="514" style="fill: rgb(204, 204, 204); stroke: black; stroke-width: 1; opacity: 0.8;"></rect><rect class="rect" id="3_5" width="16" height="16" x="825" y="522" style="fill: rgb(255, 255, 255); stroke: black; stroke-width: 1; opacity: 0.8;"></rect><rect class="rect" id="3_6" width="16" height="16" x="833" y="530" style="fill: rgb(204, 204, 204); stroke: black; stroke-width: 1; opacity: 0.8;"></rect><rect class="rect" id="3_7" width="16" height="16" x="841" y="538" style="fill: rgb(255, 255, 255); stroke: black; stroke-width: 1; opacity: 0.8;"></rect><rect class="rect" id="3_8" width="16" height="16" x="849" y="546" style="fill: rgb(204, 204, 204); stroke: black; stroke-width: 1; opacity: 0.8;"></rect><rect class="rect" id="3_9" width="16" height="16" x="857" y="554" style="fill: rgb(255, 255, 255); stroke: black; stroke-width: 1; opacity: 0.8;"></rect><rect class="rect" id="3_10" width="16" height="16" x="865" y="562" style="fill: rgb(204, 204, 204); stroke: black; stroke-width: 1; opacity: 0.8;"></rect><rect class="rect" id="3_11" width="16" height="16" x="873" y="570" style="fill: rgb(255, 255, 255); stroke: black; stroke-width: 1; opacity: 0.8;"></rect><rect class="rect" id="3_12" width="16" height="16" x="881" y="578" style="fill: rgb(204, 204, 204); stroke: black; stroke-width: 1; opacity: 0.8;"></rect><rect class="rect" id="3_13" width="16" height="16" x="889" y="586" style="fill: rgb(255, 255, 255); stroke: black; stroke-width: 1; opacity: 0.8;"></rect><rect class="rect" id="3_14" width="16" height="16" x="897" y="594" style="fill: rgb(204, 204, 204); stroke: black; stroke-width: 1; opacity: 0.8;"></rect><rect class="rect" id="3_15" width="16" height="16" x="905" y="602" style="fill: rgb(255, 255, 255); stroke: black; stroke-width: 1; opacity: 0.8;"></rect><rect class="rect" id="3_16" width="16" height="16" x="913" y="610" style="fill: rgb(204, 204, 204); stroke: black; stroke-width: 1; opacity: 0.8;"></rect><rect class="rect" id="3_17" width="16" height="16" x="921" y="618" style="fill: rgb(255, 255, 255); stroke: black; stroke-width: 1; opacity: 0.8;"></rect><rect class="rect" id="3_18" width="16" height="16" x="929" y="626" style="fill: rgb(204, 204, 204); stroke: black; stroke-width: 1; opacity: 0.8;"></rect><rect class="rect" id="3_19" width="16" height="16" x="937" y="634" style="fill: rgb(255, 255, 255); stroke: black; stroke-width: 1; opacity: 0.8;"></rect><rect class="rect" id="3_20" width="16" height="16" x="945" y="642" style="fill: rgb(204, 204, 204); stroke: black; stroke-width: 1; opacity: 0.8;"></rect><rect class="rect" id="3_21" width="16" height="16" x="953" y="650" style="fill: rgb(255, 255, 255); stroke: black; stroke-width: 1; opacity: 0.8;"></rect><rect class="rect" id="3_22" width="16" height="16" x="961" y="658" style="fill: rgb(204, 204, 204); stroke: black; stroke-width: 1; opacity: 0.8;"></rect><rect class="rect" id="3_23" width="16" height="16" x="969" y="666" style="fill: rgb(255, 255, 255); stroke: black; stroke-width: 1; opacity: 0.8;"></rect><rect class="conv" id="conv_0" width="8" height="8" x="379.82808293544974" y="643.617415393054" style="fill-opacity: 0; stroke: black; stroke-width: 1; stroke-opacity: 0.8;"></rect><rect class="conv" id="conv_1" width="16" height="16" x="513.5804702329372" y="586.2128373797681" style="fill-opacity: 0; stroke: black; stroke-width: 1; stroke-opacity: 0.8;"></rect><rect class="conv" id="conv_2" width="8" height="8" x="775.0986601001765" y="684.1174071875205" style="fill-opacity: 0; stroke: black; stroke-width: 1; stroke-opacity: 0.8;"></rect><line class="link" id="conv_0" x1="387.82808293544974" y1="651.617415393054" x2="554.9083108989066" y2="630.0626215429621" style="stroke: black; stroke-width: 0.5; stroke-opacity: 0.8;"></line><line class="link" id="conv_0" x1="387.82808293544974" y1="643.617415393054" x2="554.9083108989066" y2="630.0626215429621" style="stroke: black; stroke-width: 0.5; stroke-opacity: 0.8;"></line><line class="link" id="conv_1" x1="529.5804702329372" y1="602.2128373797681" x2="771.580470232937" y2="658.2128373797681" style="stroke: black; stroke-width: 0.5; stroke-opacity: 0.8;"></line><line class="link" id="conv_1" x1="529.5804702329372" y1="586.2128373797681" x2="771.580470232937" y2="658.2128373797681" style="stroke: black; stroke-width: 0.5; stroke-opacity: 0.8;"></line><line class="link" id="conv_2" x1="783.0986601001765" y1="692.1174071875205" x2="976.2394640400706" y2="679.6469628750082" style="stroke: black; stroke-width: 0.5; stroke-opacity: 0.8;"></line><line class="link" id="conv_2" x1="783.0986601001765" y1="684.1174071875205" x2="976.2394640400706" y2="679.6469628750082" style="stroke: black; stroke-width: 0.5; stroke-opacity: 0.8;"></line><polygon class="poly" id="fc_0" points="965,454 975,454 1231,710 1221,710" style="fill: rgb(255, 255, 255); stroke: black; stroke-width: 1; opacity: 0.8;"></polygon><polygon class="poly" id="fc_1" points="1233,518 1243,518 1371,646 1361,646" style="fill: rgb(255, 255, 255); stroke: black; stroke-width: 1; opacity: 0.8;"></polygon><line class="line" id="fc_0" x1="985" y1="682" x2="1221" y2="710" style="stroke: black; stroke-width: 0.5; stroke-opacity: 0.8; opacity: 1;"></line><line class="line" id="fc_0" x1="801" y1="482" x2="965" y2="454" style="stroke: black; stroke-width: 0.5; stroke-opacity: 0.8; opacity: 1;"></line><line class="line" id="fc_1" x1="1231" y1="710" x2="1361" y2="646" style="stroke: black; stroke-width: 0.5; stroke-opacity: 0.8; opacity: 1;"></line><line class="line" id="fc_1" x1="975" y1="454" x2="1233" y2="518" style="stroke: black; stroke-width: 0.5; stroke-opacity: 0.8; opacity: 1;"></line><text class="text" dy=".35em" font-family="sans-serif" x="438" y="746" style="font-size: 16px; opacity: 1;">Max-Pool</text><text class="text" dy=".35em" font-family="sans-serif" x="611" y="746" style="font-size: 16px; opacity: 1;">Convolution</text><text class="text" dy=".35em" font-family="sans-serif" x="830" y="746" style="font-size: 16px; opacity: 1;">Max-Pool</text><text class="text" dy=".35em" font-family="sans-serif" x="1024" y="746" style="font-size: 16px; opacity: 1;">Dense</text><text class="info" dy="-0.3em" font-family="sans-serif" x="219" y="475" style="font-size: 16px;">8@128x128</text><text class="info" dy="-0.3em" font-family="sans-serif" x="443" y="507" style="font-size: 16px;">8@64x64</text><text class="info" dy="-0.3em" font-family="sans-serif" x="573" y="451" style="font-size: 16px;">24@48x48</text><text class="info" dy="-0.3em" font-family="sans-serif" x="785" y="467" style="font-size: 16px;">24@16x16</text><text class="info" dy="-0.3em" font-family="sans-serif" x="965" y="439" style="font-size: 16px;">1x256</text><text class="info" dy="-0.3em" font-family="sans-serif" x="1233" y="503" style="font-size: 16px;">1x128</text></g></svg>